:SAMPLES-PER-SECOND 30
:FULLY-SPECIFIED
:DEGREES
223
root  -37.1101 37.6574 7.07848 133.436 -83.9552 -137.497
RightUpLeg  -24.3202 -7.35612 3.34825
RightLeg  29.5486 2.1463 1.07199
RightFoot  -2.045 0.0831406 -1.18991
RightToes  4.6566e-010 0 -3.6325e-017
Spine  8.90467 -3.18591 11.0468
Spine1  7.98726 -2.10146 0.719805
HEad  -12.5411 4.52916 -5.0418
LeftShoulder1  -0.204054 4.01972 -33.5098
LeftArm  1.07283 -2.35825 -45.165
LeftForeArm  16.3095 -38.8082 -7.98822
LeftHand  -0.315478 -0.0732521 6.78937
RightShoulder  -0.737115 -5.52049 29.8732
RightArm  -5.50255 -7.54012 42.4697
RightForeArm  5.64263 49.4639 12.7395
RightHand  -0.926513 5.50543 -10.1445
LeftUpLeg  7.46816 -1.79738 7.55417
LeftLeg  45.4391 0.958456 1.54217
LeftFoot  -7.52113 0.311323 -12.6383
LeftToes  -4.59298e-010 2.08438e-011 -1.27151e-011
224
root  -38.2027 37.6747 6.78027 123.489 -83.3232 -127.773
RightUpLeg  -22.8203 -7.30161 4.65208
RightLeg  31.1836 1.59319 0.786615
RightFoot  -4.71181 0.0457398 -1.32831
RightToes  4.6566e-010 0 -3.6325e-017
Spine  9.05207 -3.29566 12.951
Spine1  8.19571 -1.97308 1.02642
HEad  -11.6893 3.99371 -4.91063
LeftShoulder1  -0.149882 3.88047 -33.6357
LeftArm  0.690279 -5.58171 -45.6776
LeftForeArm  17.0835 -40.7527 -8.5504
LeftHand  -0.329965 0.179794 7.39331
RightShoulder  -0.649581 -5.31998 29.0447
RightArm  -6.49209 -3.08072 42.683
RightForeArm  8.13582 53.5415 14.6663
RightHand  -0.836404 5.36183 -9.32167
LeftUpLeg  0.692916 -2.64583 8.54105
LeftLeg  56.6332 1.71769 3.22177
LeftFoot  5.72131 0.849146 -5.37821
LeftToes  -4.59298e-010 2.08438e-011 -1.27151e-011
225
root  -39.2888 37.7666 6.49569 118.013 -82.9013 -123.017
RightUpLeg  -20.3718 -7.36016 5.38661
RightLeg  31.9744 1.14689 0.512777
RightFoot  -7.10796 -0.00151526 -1.26497
RightToes  4.6566e-010 0 -3.6325e-017
Spine  9.38988 -3.40772 14.3471
Spine1  8.38273 -1.70252 0.628457
HEad  -11.0636 3.64171 -4.60534
LeftShoulder1  -0.0515505 3.63504 -33.0865
LeftArm  -0.679745 -8.69131 -46.3181
LeftForeArm  18.9912 -43.1608 -9.21335
LeftHand  -0.303773 0.0311146 6.63194
RightShoulder  -0.557316 -5.07894 28.5994
RightArm  -7.01008 2.36166 42.5734
RightForeArm  9.48277 56.7388 16.5338
RightHand  -0.859428 5.89751 -9.13536
LeftUpLeg  -4.5109 -3.23186 8.9517
LeftLeg  64.3698 0.208226 1.05507
LeftFoot  5.45767 0.42636 -3.05542
LeftToes  -4.59298e-010 2.08438e-011 -1.27151e-011
226
root  -40.4307 37.9872 6.20028 118.106 -83.0345 -123.814
RightUpLeg  -17.3843 -7.46704 5.25293
RightLeg  31.7828 1.12117 0.488129
RightFoot  -8.95091 -0.0307521 -1.45941
RightToes  4.6566e-010 0 -3.6325e-017
Spine  9.18156 -3.14867 14.7152
Spine1  8.75018 -1.27511 0.131318
HEad  -10.1863 3.09492 -4.51534
LeftShoulder1  0.056849 3.35733 -32.568
LeftArm  -1.64086 -12.6344 -46.9863
LeftForeArm  19.4167 -44.1565 -9.541
LeftHand  -0.327144 -0.119092 6.96156
RightShoulder  -0.544425 -5.06605 28.0478
RightArm  -7.6278 8.90469 42.7523
RightForeArm  9.57642 58.2597 17.6419
RightHand  -0.895874 5.85919 -9.53813
LeftUpLeg  -9.14369 -3.05773 8.4888
LeftLeg  68.4327 -1.46694 -3.2664
LeftFoot  3.05986 0.249919 -2.17344
LeftToes  -4.59298e-010 2.08438e-011 -1.27151e-011
227
root  -41.5804 38.2247 5.92186 122.752 -83.0561 -128.842
RightUpLeg  -14.5749 -7.13531 4.99565
RightLeg  31.1559 1.26339 0.564264
RightFoot  -10.4558 -0.0561997 -1.7693
RightToes  4.6566e-010 0 -3.6325e-017
Spine  9.24179 -2.74323 14.5806
Spine1  8.10229 -0.824919 -0.070778
HEad  -9.04153 2.73761 -4.29436
LeftShoulder1  0.106043 3.22501 -31.9977
LeftArm  -2.5529 -15.9301 -47.0729
LeftForeArm  19.492 -45.3564 -9.97215
LeftHand  -0.329003 -0.000837066 7.15205
RightShoulder  -0.447392 -4.82434 26.9401
RightArm  -8.09494 14.7277 43.2828
RightForeArm  9.26326 59.4751 18.6403
RightHand  -0.917793 5.25718 -10.2989
LeftUpLeg  -13.4101 -2.20225 7.72878
LeftLeg  69.1665 -2.02319 -5.08131
LeftFoot  1.25048 0.379399 -3.47997
LeftToes  -4.59298e-010 2.08438e-011 -1.27151e-011
228
root  -42.7549 38.4525 5.64636 123.683 -83.1793 -130.172
RightUpLeg  -11.4291 -7.28143 4.78151
RightLeg  30.0465 1.39609 0.615843
RightFoot  -12.1082 -0.0923142 -1.55096
RightToes  4.6566e-010 0 -3.6325e-017
Spine  8.49692 -2.41607 15.0145
Spine1  8.28982 -0.386049 -1.14424
HEad  -8.52934 2.1828 -4.08323
LeftShoulder1  0.213526 2.92986 -31.074
LeftArm  -3.32578 -19.8491 -47.2597
LeftForeArm  19.0551 -46.0091 -10.2558
LeftHand  -0.320993 0.453532 7.55982
RightShoulder  -0.322178 -4.49123 25.5323
RightArm  -8.99152 20.247 43.5921
RightForeArm  9.91811 60.3236 19.293
RightHand  -0.886696 4.46873 -10.7106
LeftUpLeg  -17.1192 -1.40808 7.05733
LeftLeg  67.0241 -2.10845 -4.78926
LeftFoot  -0.759431 0.254893 -2.70323
LeftToes  -4.59298e-010 2.08438e-011 -1.27151e-011
229
root  -43.9022 38.6765 5.3669 131.544 -83.1842 -138.438
RightUpLeg  -8.34934 -6.64471 4.21232
RightLeg  28.7923 1.52735 0.658416
RightFoot  -13.3482 -0.118809 -1.60517
RightToes  4.6566e-010 0 -3.6325e-017
Spine  8.52413 -1.8622 14.6312
Spine1  7.65716 0.245602 -2.14262
HEad  -7.91346 1.69609 -4.00721
LeftShoulder1  0.302003 2.66831 -30.0616
LeftArm  -4.37716 -23.3831 -46.9353
LeftForeArm  19.458 -47.0455 -10.6308
LeftHand  -0.337439 0.0527875 7.41078
RightShoulder  -0.267529 -4.34477 24.5619
RightArm  -9.45529 26.1945 43.4585
RightForeArm  10.4869 60.2907 19.2063
RightHand  -0.891842 5.3623 -9.91462
LeftUpLeg  -19.6974 0.302419 5.93405
LeftLeg  61.6963 -1.77677 -3.00722
LeftFoot  -2.17708 0.152276 -1.72848
LeftToes  -4.59298e-010 2.08438e-011 -1.27151e-011
230
root  -45.0415 38.8431 5.11918 135.103 -83.3562 -142.345
RightUpLeg  -5.32623 -6.3911 3.76384
RightLeg  27.5399 1.46495 0.581102
RightFoot  -14.4915 -0.152053 -1.96981
RightToes  4.6566e-010 0 -3.6325e-017
Spine  8.32246 -1.58909 14.3308
Spine1  7.34584 0.52278 -3.05939
HEad  -7.80086 1.33544 -3.55339
LeftShoulder1  0.410649 2.3237 -28.6803
LeftArm  -6.00494 -27.3509 -46.6383
LeftForeArm  19.0328 -47.2042 -10.7278
LeftHand  -0.347921 -0.460627 7.00088
RightShoulder  -0.207077 -4.17475 23.3591
RightArm  -9.75843 32.2616 43.4561
RightForeArm  9.15738 59.2236 18.4464
RightHand  -0.923413 4.64261 -10.9325
LeftUpLeg  -21.4114 1.79781 4.99924
LeftLeg  53.8129 -1.37864 -1.5725
LeftFoot  -3.08164 0.0813507 -0.896871
LeftToes  -4.59298e-010 2.08438e-011 -1.27151e-011
